<mxfile host="app.diagrams.net" modified="2023-12-17T21:05:48.243Z" agent="Mozilla/5.0 (Windows NT 10.0; Win64; x64) AppleWebKit/537.36 (KHTML, like Gecko) Chrome/120.0.0.0 Safari/537.36" etag="OT2YWPCTVMk2drb67mHJ" version="22.1.11" type="github">
  <diagram name="Page-1" id="b520641d-4fe3-3701-9064-5fc419738815">
    <mxGraphModel dx="1512" dy="820" grid="1" gridSize="10" guides="1" tooltips="1" connect="1" arrows="1" fold="1" page="1" pageScale="1" pageWidth="1100" pageHeight="850" background="none" math="0" shadow="0">
      <root>
        <mxCell id="0" />
        <mxCell id="1" parent="0" />
        <mxCell id="XGFKqOZZNp15hK3o9Csi-1" value="Facility Users" style="rounded=0;whiteSpace=wrap;html=1;fillColor=#dae8fc;strokeColor=#6c8ebf;" vertex="1" parent="1">
          <mxGeometry x="110" y="795" width="120" height="60" as="geometry" />
        </mxCell>
        <mxCell id="XGFKqOZZNp15hK3o9Csi-3" value="Facility System" style="rounded=0;whiteSpace=wrap;html=1;fillColor=#dae8fc;strokeColor=#6c8ebf;" vertex="1" parent="1">
          <mxGeometry x="780" y="480" width="120" height="60" as="geometry" />
        </mxCell>
        <mxCell id="XGFKqOZZNp15hK3o9Csi-7" value="" style="group" vertex="1" connectable="0" parent="1">
          <mxGeometry x="420" y="770" width="150" height="110" as="geometry" />
        </mxCell>
        <mxCell id="XGFKqOZZNp15hK3o9Csi-4" value="Submit Maintenance Request" style="rounded=1;whiteSpace=wrap;html=1;fillColor=#dae8fc;strokeColor=#6c8ebf;" vertex="1" parent="XGFKqOZZNp15hK3o9Csi-7">
          <mxGeometry width="150" height="110" as="geometry" />
        </mxCell>
        <mxCell id="XGFKqOZZNp15hK3o9Csi-6" value="" style="endArrow=none;html=1;rounded=0;entryX=1;entryY=0.25;entryDx=0;entryDy=0;exitX=0;exitY=0.25;exitDx=0;exitDy=0;" edge="1" parent="XGFKqOZZNp15hK3o9Csi-7">
          <mxGeometry width="50" height="50" relative="1" as="geometry">
            <mxPoint y="30" as="sourcePoint" />
            <mxPoint x="150" y="30" as="targetPoint" />
          </mxGeometry>
        </mxCell>
        <mxCell id="XGFKqOZZNp15hK3o9Csi-8" value="&lt;span style=&quot;font-size: 14px;&quot;&gt;1.0&lt;/span&gt;" style="text;strokeColor=none;fillColor=none;html=1;fontSize=24;fontStyle=1;verticalAlign=middle;align=center;" vertex="1" parent="XGFKqOZZNp15hK3o9Csi-7">
          <mxGeometry x="45" y="10" width="60" height="10" as="geometry" />
        </mxCell>
        <mxCell id="XGFKqOZZNp15hK3o9Csi-40" value="&lt;strong style=&quot;border: 0px solid rgb(217, 217, 227); box-sizing: border-box; --tw-border-spacing-x: 0; --tw-border-spacing-y: 0; --tw-translate-x: 0; --tw-translate-y: 0; --tw-rotate: 0; --tw-skew-x: 0; --tw-skew-y: 0; --tw-scale-x: 1; --tw-scale-y: 1; --tw-pan-x: ; --tw-pan-y: ; --tw-pinch-zoom: ; --tw-scroll-snap-strictness: proximity; --tw-gradient-from-position: ; --tw-gradient-via-position: ; --tw-gradient-to-position: ; --tw-ordinal: ; --tw-slashed-zero: ; --tw-numeric-figure: ; --tw-numeric-spacing: ; --tw-numeric-fraction: ; --tw-ring-inset: ; --tw-ring-offset-width: 0px; --tw-ring-offset-color: #fff; --tw-ring-color: rgba(69,89,164,.5); --tw-ring-offset-shadow: 0 0 transparent; --tw-ring-shadow: 0 0 transparent; --tw-shadow: 0 0 transparent; --tw-shadow-colored: 0 0 transparent; --tw-blur: ; --tw-brightness: ; --tw-contrast: ; --tw-grayscale: ; --tw-hue-rotate: ; --tw-invert: ; --tw-saturate: ; --tw-sepia: ; --tw-drop-shadow: ; --tw-backdrop-blur: ; --tw-backdrop-brightness: ; --tw-backdrop-contrast: ; --tw-backdrop-grayscale: ; --tw-backdrop-hue-rotate: ; --tw-backdrop-invert: ; --tw-backdrop-opacity: ; --tw-backdrop-saturate: ; --tw-backdrop-sepia: ; font-weight: 600; color: var(--tw-prose-bold); font-family: Söhne, ui-sans-serif, system-ui, -apple-system, &amp;quot;Segoe UI&amp;quot;, Roboto, Ubuntu, Cantarell, &amp;quot;Noto Sans&amp;quot;, sans-serif, &amp;quot;Helvetica Neue&amp;quot;, Arial, &amp;quot;Apple Color Emoji&amp;quot;, &amp;quot;Segoe UI Emoji&amp;quot;, &amp;quot;Segoe UI Symbol&amp;quot;, &amp;quot;Noto Color Emoji&amp;quot;; font-style: normal; font-variant-ligatures: normal; font-variant-caps: normal; letter-spacing: normal; orphans: 2; text-align: left; text-indent: 0px; text-transform: none; widows: 2; word-spacing: 0px; -webkit-text-stroke-width: 0px; text-decoration-thickness: initial; text-decoration-style: initial; text-decoration-color: initial; background-color: rgb(255, 255, 255);&quot;&gt;&lt;font style=&quot;font-size: 12px;&quot;&gt;User Maintenance Request&lt;/font&gt;&lt;/strong&gt;" style="text;whiteSpace=wrap;html=1;" vertex="1" parent="XGFKqOZZNp15hK3o9Csi-7">
          <mxGeometry x="-180" y="30" width="190" height="20" as="geometry" />
        </mxCell>
        <mxCell id="XGFKqOZZNp15hK3o9Csi-10" value="" style="group" vertex="1" connectable="0" parent="1">
          <mxGeometry x="995" y="920" width="150" height="110" as="geometry" />
        </mxCell>
        <mxCell id="XGFKqOZZNp15hK3o9Csi-11" value="Feedback to Users" style="rounded=1;whiteSpace=wrap;html=1;fillColor=#dae8fc;strokeColor=#6c8ebf;" vertex="1" parent="XGFKqOZZNp15hK3o9Csi-10">
          <mxGeometry width="150" height="110" as="geometry" />
        </mxCell>
        <mxCell id="XGFKqOZZNp15hK3o9Csi-12" value="" style="endArrow=none;html=1;rounded=0;entryX=1;entryY=0.25;entryDx=0;entryDy=0;exitX=0;exitY=0.25;exitDx=0;exitDy=0;" edge="1" parent="XGFKqOZZNp15hK3o9Csi-10">
          <mxGeometry width="50" height="50" relative="1" as="geometry">
            <mxPoint y="30" as="sourcePoint" />
            <mxPoint x="150" y="30" as="targetPoint" />
          </mxGeometry>
        </mxCell>
        <mxCell id="XGFKqOZZNp15hK3o9Csi-13" value="&lt;span style=&quot;font-size: 14px;&quot;&gt;6.0&lt;/span&gt;" style="text;strokeColor=none;fillColor=none;html=1;fontSize=24;fontStyle=1;verticalAlign=middle;align=center;" vertex="1" parent="XGFKqOZZNp15hK3o9Csi-10">
          <mxGeometry x="45" y="10" width="60" height="10" as="geometry" />
        </mxCell>
        <mxCell id="XGFKqOZZNp15hK3o9Csi-14" value="" style="group" vertex="1" connectable="0" parent="1">
          <mxGeometry x="1280" y="1060" width="160" height="105" as="geometry" />
        </mxCell>
        <mxCell id="XGFKqOZZNp15hK3o9Csi-15" value="Update Request Status" style="rounded=1;whiteSpace=wrap;html=1;fillColor=#dae8fc;strokeColor=#6c8ebf;" vertex="1" parent="XGFKqOZZNp15hK3o9Csi-14">
          <mxGeometry width="150" height="105" as="geometry" />
        </mxCell>
        <mxCell id="XGFKqOZZNp15hK3o9Csi-16" value="" style="endArrow=none;html=1;rounded=0;entryX=1;entryY=0.25;entryDx=0;entryDy=0;exitX=0;exitY=0.25;exitDx=0;exitDy=0;" edge="1" parent="XGFKqOZZNp15hK3o9Csi-14">
          <mxGeometry width="50" height="50" relative="1" as="geometry">
            <mxPoint y="28.636363636363637" as="sourcePoint" />
            <mxPoint x="150" y="28.636363636363637" as="targetPoint" />
          </mxGeometry>
        </mxCell>
        <mxCell id="XGFKqOZZNp15hK3o9Csi-17" value="&lt;span style=&quot;font-size: 14px;&quot;&gt;5.0&lt;/span&gt;" style="text;strokeColor=none;fillColor=none;html=1;fontSize=24;fontStyle=1;verticalAlign=middle;align=center;" vertex="1" parent="XGFKqOZZNp15hK3o9Csi-14">
          <mxGeometry x="45" y="9.545454545454547" width="60" height="9.545454545454547" as="geometry" />
        </mxCell>
        <mxCell id="XGFKqOZZNp15hK3o9Csi-18" value="" style="group" vertex="1" connectable="0" parent="1">
          <mxGeometry x="1285" y="745" width="150" height="110" as="geometry" />
        </mxCell>
        <mxCell id="XGFKqOZZNp15hK3o9Csi-19" value="Perform Maintenance" style="rounded=1;whiteSpace=wrap;html=1;fillColor=#dae8fc;strokeColor=#6c8ebf;" vertex="1" parent="XGFKqOZZNp15hK3o9Csi-18">
          <mxGeometry width="150" height="110" as="geometry" />
        </mxCell>
        <mxCell id="XGFKqOZZNp15hK3o9Csi-20" value="" style="endArrow=none;html=1;rounded=0;entryX=1;entryY=0.25;entryDx=0;entryDy=0;exitX=0;exitY=0.25;exitDx=0;exitDy=0;" edge="1" parent="XGFKqOZZNp15hK3o9Csi-18">
          <mxGeometry width="50" height="50" relative="1" as="geometry">
            <mxPoint y="30" as="sourcePoint" />
            <mxPoint x="150" y="30" as="targetPoint" />
          </mxGeometry>
        </mxCell>
        <mxCell id="XGFKqOZZNp15hK3o9Csi-21" value="&lt;span style=&quot;font-size: 14px;&quot;&gt;4.0&lt;/span&gt;" style="text;strokeColor=none;fillColor=none;html=1;fontSize=24;fontStyle=1;verticalAlign=middle;align=center;" vertex="1" parent="XGFKqOZZNp15hK3o9Csi-18">
          <mxGeometry x="45" y="10" width="60" height="10" as="geometry" />
        </mxCell>
        <mxCell id="XGFKqOZZNp15hK3o9Csi-51" value="&lt;strong style=&quot;border: 0px solid rgb(217, 217, 227); box-sizing: border-box; --tw-border-spacing-x: 0; --tw-border-spacing-y: 0; --tw-translate-x: 0; --tw-translate-y: 0; --tw-rotate: 0; --tw-skew-x: 0; --tw-skew-y: 0; --tw-scale-x: 1; --tw-scale-y: 1; --tw-pan-x: ; --tw-pan-y: ; --tw-pinch-zoom: ; --tw-scroll-snap-strictness: proximity; --tw-gradient-from-position: ; --tw-gradient-via-position: ; --tw-gradient-to-position: ; --tw-ordinal: ; --tw-slashed-zero: ; --tw-numeric-figure: ; --tw-numeric-spacing: ; --tw-numeric-fraction: ; --tw-ring-inset: ; --tw-ring-offset-width: 0px; --tw-ring-offset-color: #fff; --tw-ring-color: rgba(69,89,164,.5); --tw-ring-offset-shadow: 0 0 transparent; --tw-ring-shadow: 0 0 transparent; --tw-shadow: 0 0 transparent; --tw-shadow-colored: 0 0 transparent; --tw-blur: ; --tw-brightness: ; --tw-contrast: ; --tw-grayscale: ; --tw-hue-rotate: ; --tw-invert: ; --tw-saturate: ; --tw-sepia: ; --tw-drop-shadow: ; --tw-backdrop-blur: ; --tw-backdrop-brightness: ; --tw-backdrop-contrast: ; --tw-backdrop-grayscale: ; --tw-backdrop-hue-rotate: ; --tw-backdrop-invert: ; --tw-backdrop-opacity: ; --tw-backdrop-saturate: ; --tw-backdrop-sepia: ; font-weight: 600; color: var(--tw-prose-bold); font-family: Söhne, ui-sans-serif, system-ui, -apple-system, &amp;quot;Segoe UI&amp;quot;, Roboto, Ubuntu, Cantarell, &amp;quot;Noto Sans&amp;quot;, sans-serif, &amp;quot;Helvetica Neue&amp;quot;, Arial, &amp;quot;Apple Color Emoji&amp;quot;, &amp;quot;Segoe UI Emoji&amp;quot;, &amp;quot;Segoe UI Symbol&amp;quot;, &amp;quot;Noto Color Emoji&amp;quot;; font-style: normal; font-variant-ligatures: normal; font-variant-caps: normal; letter-spacing: normal; orphans: 2; text-align: left; text-indent: 0px; text-transform: none; widows: 2; word-spacing: 0px; -webkit-text-stroke-width: 0px; text-decoration-thickness: initial; text-decoration-style: initial; text-decoration-color: initial;&quot;&gt;&lt;font style=&quot;font-size: 12px;&quot;&gt;Maintenance Schedule&lt;/font&gt;&lt;/strong&gt;" style="text;whiteSpace=wrap;html=1;labelBackgroundColor=default;" vertex="1" parent="XGFKqOZZNp15hK3o9Csi-18">
          <mxGeometry x="-130" y="30" width="200" height="40" as="geometry" />
        </mxCell>
        <mxCell id="XGFKqOZZNp15hK3o9Csi-22" value="" style="group" vertex="1" connectable="0" parent="1">
          <mxGeometry x="730" y="720" width="150" height="110" as="geometry" />
        </mxCell>
        <mxCell id="XGFKqOZZNp15hK3o9Csi-23" value="Review and Approve Request" style="rounded=1;whiteSpace=wrap;html=1;fillColor=#dae8fc;strokeColor=#6c8ebf;" vertex="1" parent="XGFKqOZZNp15hK3o9Csi-22">
          <mxGeometry width="150" height="110" as="geometry" />
        </mxCell>
        <mxCell id="XGFKqOZZNp15hK3o9Csi-24" value="" style="endArrow=none;html=1;rounded=0;entryX=1;entryY=0.25;entryDx=0;entryDy=0;exitX=0;exitY=0.25;exitDx=0;exitDy=0;" edge="1" parent="XGFKqOZZNp15hK3o9Csi-22">
          <mxGeometry width="50" height="50" relative="1" as="geometry">
            <mxPoint y="30" as="sourcePoint" />
            <mxPoint x="150" y="30" as="targetPoint" />
          </mxGeometry>
        </mxCell>
        <mxCell id="XGFKqOZZNp15hK3o9Csi-25" value="&lt;span style=&quot;font-size: 14px;&quot;&gt;2.0&lt;/span&gt;" style="text;strokeColor=none;fillColor=none;html=1;fontSize=24;fontStyle=1;verticalAlign=middle;align=center;" vertex="1" parent="XGFKqOZZNp15hK3o9Csi-22">
          <mxGeometry x="45" y="10" width="60" height="10" as="geometry" />
        </mxCell>
        <mxCell id="XGFKqOZZNp15hK3o9Csi-26" value="" style="group" vertex="1" connectable="0" parent="1">
          <mxGeometry x="995" y="745" width="150" height="110" as="geometry" />
        </mxCell>
        <mxCell id="XGFKqOZZNp15hK3o9Csi-27" value="Schedule Maintenance" style="rounded=1;whiteSpace=wrap;html=1;fillColor=#dae8fc;strokeColor=#6c8ebf;" vertex="1" parent="XGFKqOZZNp15hK3o9Csi-26">
          <mxGeometry width="150" height="110" as="geometry" />
        </mxCell>
        <mxCell id="XGFKqOZZNp15hK3o9Csi-28" value="" style="endArrow=none;html=1;rounded=0;entryX=1;entryY=0.25;entryDx=0;entryDy=0;exitX=0;exitY=0.25;exitDx=0;exitDy=0;" edge="1" parent="XGFKqOZZNp15hK3o9Csi-26">
          <mxGeometry width="50" height="50" relative="1" as="geometry">
            <mxPoint y="30" as="sourcePoint" />
            <mxPoint x="150" y="30" as="targetPoint" />
          </mxGeometry>
        </mxCell>
        <mxCell id="XGFKqOZZNp15hK3o9Csi-29" value="&lt;span style=&quot;font-size: 14px;&quot;&gt;3.0&lt;/span&gt;" style="text;strokeColor=none;fillColor=none;html=1;fontSize=24;fontStyle=1;verticalAlign=middle;align=center;" vertex="1" parent="XGFKqOZZNp15hK3o9Csi-26">
          <mxGeometry x="45" y="10" width="60" height="10" as="geometry" />
        </mxCell>
        <mxCell id="XGFKqOZZNp15hK3o9Csi-32" value="" style="group" vertex="1" connectable="0" parent="1">
          <mxGeometry x="415" y="1020" width="155" height="60" as="geometry" />
        </mxCell>
        <mxCell id="XGFKqOZZNp15hK3o9Csi-30" value="&amp;nbsp; &amp;nbsp;Maintenance Request Database" style="rounded=1;whiteSpace=wrap;html=1;fillColor=#dae8fc;strokeColor=#6c8ebf;" vertex="1" parent="XGFKqOZZNp15hK3o9Csi-32">
          <mxGeometry width="155" height="60" as="geometry" />
        </mxCell>
        <mxCell id="XGFKqOZZNp15hK3o9Csi-31" value="" style="endArrow=none;html=1;rounded=0;exitX=0.125;exitY=1.002;exitDx=0;exitDy=0;exitPerimeter=0;entryX=0.128;entryY=-0.008;entryDx=0;entryDy=0;entryPerimeter=0;" edge="1" parent="XGFKqOZZNp15hK3o9Csi-32" source="XGFKqOZZNp15hK3o9Csi-30" target="XGFKqOZZNp15hK3o9Csi-30">
          <mxGeometry width="50" height="50" relative="1" as="geometry">
            <mxPoint x="38.75" y="59.40000000000009" as="sourcePoint" />
            <mxPoint x="20.227499999999996" as="targetPoint" />
          </mxGeometry>
        </mxCell>
        <mxCell id="XGFKqOZZNp15hK3o9Csi-33" value="" style="group" vertex="1" connectable="0" parent="1">
          <mxGeometry x="1490" y="890" width="160" height="60" as="geometry" />
        </mxCell>
        <mxCell id="XGFKqOZZNp15hK3o9Csi-34" value="&amp;nbsp; &amp;nbsp; &amp;nbsp;Completed Maintenance Data" style="rounded=1;whiteSpace=wrap;html=1;fillColor=#dae8fc;strokeColor=#6c8ebf;" vertex="1" parent="XGFKqOZZNp15hK3o9Csi-33">
          <mxGeometry width="160" height="60" as="geometry" />
        </mxCell>
        <mxCell id="XGFKqOZZNp15hK3o9Csi-35" value="" style="endArrow=none;html=1;rounded=0;exitX=0.125;exitY=1.002;exitDx=0;exitDy=0;exitPerimeter=0;entryX=0.128;entryY=-0.008;entryDx=0;entryDy=0;entryPerimeter=0;" edge="1" parent="XGFKqOZZNp15hK3o9Csi-33" source="XGFKqOZZNp15hK3o9Csi-34" target="XGFKqOZZNp15hK3o9Csi-34">
          <mxGeometry width="50" height="50" relative="1" as="geometry">
            <mxPoint x="40" y="59.40000000000009" as="sourcePoint" />
            <mxPoint x="20.879999999999995" as="targetPoint" />
          </mxGeometry>
        </mxCell>
        <mxCell id="XGFKqOZZNp15hK3o9Csi-36" value="" style="group" vertex="1" connectable="0" parent="1">
          <mxGeometry x="990" y="590" width="160" height="60" as="geometry" />
        </mxCell>
        <mxCell id="XGFKqOZZNp15hK3o9Csi-37" value="&amp;nbsp; &amp;nbsp; Maintenance Schedule" style="rounded=1;whiteSpace=wrap;html=1;fillColor=#dae8fc;strokeColor=#6c8ebf;" vertex="1" parent="XGFKqOZZNp15hK3o9Csi-36">
          <mxGeometry width="160" height="60" as="geometry" />
        </mxCell>
        <mxCell id="XGFKqOZZNp15hK3o9Csi-38" value="" style="endArrow=none;html=1;rounded=0;exitX=0.125;exitY=1.002;exitDx=0;exitDy=0;exitPerimeter=0;entryX=0.128;entryY=-0.008;entryDx=0;entryDy=0;entryPerimeter=0;" edge="1" parent="XGFKqOZZNp15hK3o9Csi-36" source="XGFKqOZZNp15hK3o9Csi-37" target="XGFKqOZZNp15hK3o9Csi-37">
          <mxGeometry width="50" height="50" relative="1" as="geometry">
            <mxPoint x="40" y="59.40000000000009" as="sourcePoint" />
            <mxPoint x="20.879999999999995" as="targetPoint" />
          </mxGeometry>
        </mxCell>
        <mxCell id="XGFKqOZZNp15hK3o9Csi-39" value="" style="endArrow=classic;html=1;rounded=0;exitX=1;exitY=0.5;exitDx=0;exitDy=0;entryX=0;entryY=0.5;entryDx=0;entryDy=0;" edge="1" parent="1" source="XGFKqOZZNp15hK3o9Csi-1" target="XGFKqOZZNp15hK3o9Csi-4">
          <mxGeometry width="50" height="50" relative="1" as="geometry">
            <mxPoint x="275" y="830" as="sourcePoint" />
            <mxPoint x="325" y="780" as="targetPoint" />
          </mxGeometry>
        </mxCell>
        <mxCell id="XGFKqOZZNp15hK3o9Csi-41" value="" style="endArrow=classic;html=1;rounded=0;entryX=-0.008;entryY=0.546;entryDx=0;entryDy=0;entryPerimeter=0;exitX=1;exitY=0.75;exitDx=0;exitDy=0;" edge="1" parent="1" source="XGFKqOZZNp15hK3o9Csi-23" target="XGFKqOZZNp15hK3o9Csi-27">
          <mxGeometry width="50" height="50" relative="1" as="geometry">
            <mxPoint x="835" y="805" as="sourcePoint" />
            <mxPoint x="885" y="755" as="targetPoint" />
          </mxGeometry>
        </mxCell>
        <mxCell id="XGFKqOZZNp15hK3o9Csi-42" value="" style="endArrow=classic;html=1;rounded=0;exitX=0.14;exitY=1.02;exitDx=0;exitDy=0;exitPerimeter=0;entryX=0;entryY=0.5;entryDx=0;entryDy=0;" edge="1" parent="1" source="XGFKqOZZNp15hK3o9Csi-23" target="XGFKqOZZNp15hK3o9Csi-11">
          <mxGeometry width="50" height="50" relative="1" as="geometry">
            <mxPoint x="753.0999999999995" y="856.6499999999999" as="sourcePoint" />
            <mxPoint x="985" y="985" as="targetPoint" />
            <Array as="points">
              <mxPoint x="753" y="975" />
            </Array>
          </mxGeometry>
        </mxCell>
        <mxCell id="XGFKqOZZNp15hK3o9Csi-43" value="&lt;strong style=&quot;border: 0px solid rgb(217, 217, 227); box-sizing: border-box; --tw-border-spacing-x: 0; --tw-border-spacing-y: 0; --tw-translate-x: 0; --tw-translate-y: 0; --tw-rotate: 0; --tw-skew-x: 0; --tw-skew-y: 0; --tw-scale-x: 1; --tw-scale-y: 1; --tw-pan-x: ; --tw-pan-y: ; --tw-pinch-zoom: ; --tw-scroll-snap-strictness: proximity; --tw-gradient-from-position: ; --tw-gradient-via-position: ; --tw-gradient-to-position: ; --tw-ordinal: ; --tw-slashed-zero: ; --tw-numeric-figure: ; --tw-numeric-spacing: ; --tw-numeric-fraction: ; --tw-ring-inset: ; --tw-ring-offset-width: 0px; --tw-ring-offset-color: #fff; --tw-ring-color: rgba(69,89,164,.5); --tw-ring-offset-shadow: 0 0 transparent; --tw-ring-shadow: 0 0 transparent; --tw-shadow: 0 0 transparent; --tw-shadow-colored: 0 0 transparent; --tw-blur: ; --tw-brightness: ; --tw-contrast: ; --tw-grayscale: ; --tw-hue-rotate: ; --tw-invert: ; --tw-saturate: ; --tw-sepia: ; --tw-drop-shadow: ; --tw-backdrop-blur: ; --tw-backdrop-brightness: ; --tw-backdrop-contrast: ; --tw-backdrop-grayscale: ; --tw-backdrop-hue-rotate: ; --tw-backdrop-invert: ; --tw-backdrop-opacity: ; --tw-backdrop-saturate: ; --tw-backdrop-sepia: ; font-weight: 600; color: var(--tw-prose-bold); font-family: Söhne, ui-sans-serif, system-ui, -apple-system, &amp;quot;Segoe UI&amp;quot;, Roboto, Ubuntu, Cantarell, &amp;quot;Noto Sans&amp;quot;, sans-serif, &amp;quot;Helvetica Neue&amp;quot;, Arial, &amp;quot;Apple Color Emoji&amp;quot;, &amp;quot;Segoe UI Emoji&amp;quot;, &amp;quot;Segoe UI Symbol&amp;quot;, &amp;quot;Noto Color Emoji&amp;quot;; font-style: normal; font-variant-ligatures: normal; font-variant-caps: normal; letter-spacing: normal; orphans: 2; text-align: left; text-indent: 0px; text-transform: none; widows: 2; word-spacing: 0px; -webkit-text-stroke-width: 0px; text-decoration-thickness: initial; text-decoration-style: initial; text-decoration-color: initial;&quot;&gt;&lt;font style=&quot;font-size: 10px;&quot;&gt;Approved Maintenance Requests&lt;/font&gt;&lt;/strong&gt;" style="text;whiteSpace=wrap;html=1;labelBackgroundColor=default;" vertex="1" parent="1">
          <mxGeometry x="835" y="830" width="230" height="50" as="geometry" />
        </mxCell>
        <mxCell id="XGFKqOZZNp15hK3o9Csi-44" value="&lt;strong style=&quot;border: 0px solid rgb(217, 217, 227); box-sizing: border-box; --tw-border-spacing-x: 0; --tw-border-spacing-y: 0; --tw-translate-x: 0; --tw-translate-y: 0; --tw-rotate: 0; --tw-skew-x: 0; --tw-skew-y: 0; --tw-scale-x: 1; --tw-scale-y: 1; --tw-pan-x: ; --tw-pan-y: ; --tw-pinch-zoom: ; --tw-scroll-snap-strictness: proximity; --tw-gradient-from-position: ; --tw-gradient-via-position: ; --tw-gradient-to-position: ; --tw-ordinal: ; --tw-slashed-zero: ; --tw-numeric-figure: ; --tw-numeric-spacing: ; --tw-numeric-fraction: ; --tw-ring-inset: ; --tw-ring-offset-width: 0px; --tw-ring-offset-color: #fff; --tw-ring-color: rgba(69,89,164,.5); --tw-ring-offset-shadow: 0 0 transparent; --tw-ring-shadow: 0 0 transparent; --tw-shadow: 0 0 transparent; --tw-shadow-colored: 0 0 transparent; --tw-blur: ; --tw-brightness: ; --tw-contrast: ; --tw-grayscale: ; --tw-hue-rotate: ; --tw-invert: ; --tw-saturate: ; --tw-sepia: ; --tw-drop-shadow: ; --tw-backdrop-blur: ; --tw-backdrop-brightness: ; --tw-backdrop-contrast: ; --tw-backdrop-grayscale: ; --tw-backdrop-hue-rotate: ; --tw-backdrop-invert: ; --tw-backdrop-opacity: ; --tw-backdrop-saturate: ; --tw-backdrop-sepia: ; font-weight: 600; color: var(--tw-prose-bold); font-family: Söhne, ui-sans-serif, system-ui, -apple-system, &amp;quot;Segoe UI&amp;quot;, Roboto, Ubuntu, Cantarell, &amp;quot;Noto Sans&amp;quot;, sans-serif, &amp;quot;Helvetica Neue&amp;quot;, Arial, &amp;quot;Apple Color Emoji&amp;quot;, &amp;quot;Segoe UI Emoji&amp;quot;, &amp;quot;Segoe UI Symbol&amp;quot;, &amp;quot;Noto Color Emoji&amp;quot;; font-style: normal; font-variant-ligatures: normal; font-variant-caps: normal; letter-spacing: normal; orphans: 2; text-align: left; text-indent: 0px; text-transform: none; widows: 2; word-spacing: 0px; -webkit-text-stroke-width: 0px; text-decoration-thickness: initial; text-decoration-style: initial; text-decoration-color: initial;&quot;&gt;&lt;font style=&quot;font-size: 10px;&quot;&gt;Approved Maintenance Requests&lt;/font&gt;&lt;/strong&gt;" style="text;whiteSpace=wrap;html=1;labelBackgroundColor=default;" vertex="1" parent="1">
          <mxGeometry x="795" y="945" width="230" height="50" as="geometry" />
        </mxCell>
        <mxCell id="XGFKqOZZNp15hK3o9Csi-45" value="" style="endArrow=classic;html=1;rounded=0;exitX=1;exitY=0.5;exitDx=0;exitDy=0;entryX=0;entryY=0.5;entryDx=0;entryDy=0;" edge="1" parent="1" source="XGFKqOZZNp15hK3o9Csi-27" target="XGFKqOZZNp15hK3o9Csi-19">
          <mxGeometry width="50" height="50" relative="1" as="geometry">
            <mxPoint x="1155" y="805" as="sourcePoint" />
            <mxPoint x="1315" y="800" as="targetPoint" />
          </mxGeometry>
        </mxCell>
        <mxCell id="XGFKqOZZNp15hK3o9Csi-50" value="" style="endArrow=classic;html=1;rounded=0;entryX=0.5;entryY=0;entryDx=0;entryDy=0;exitX=0.468;exitY=1.024;exitDx=0;exitDy=0;exitPerimeter=0;" edge="1" parent="1" source="XGFKqOZZNp15hK3o9Csi-19" target="XGFKqOZZNp15hK3o9Csi-15">
          <mxGeometry width="50" height="50" relative="1" as="geometry">
            <mxPoint x="1345" y="915" as="sourcePoint" />
            <mxPoint x="1395" y="865" as="targetPoint" />
          </mxGeometry>
        </mxCell>
        <mxCell id="XGFKqOZZNp15hK3o9Csi-54" value="&lt;strong style=&quot;border: 0px solid rgb(217, 217, 227); box-sizing: border-box; --tw-border-spacing-x: 0; --tw-border-spacing-y: 0; --tw-translate-x: 0; --tw-translate-y: 0; --tw-rotate: 0; --tw-skew-x: 0; --tw-skew-y: 0; --tw-scale-x: 1; --tw-scale-y: 1; --tw-pan-x: ; --tw-pan-y: ; --tw-pinch-zoom: ; --tw-scroll-snap-strictness: proximity; --tw-gradient-from-position: ; --tw-gradient-via-position: ; --tw-gradient-to-position: ; --tw-ordinal: ; --tw-slashed-zero: ; --tw-numeric-figure: ; --tw-numeric-spacing: ; --tw-numeric-fraction: ; --tw-ring-inset: ; --tw-ring-offset-width: 0px; --tw-ring-offset-color: #fff; --tw-ring-color: rgba(69,89,164,.5); --tw-ring-offset-shadow: 0 0 transparent; --tw-ring-shadow: 0 0 transparent; --tw-shadow: 0 0 transparent; --tw-shadow-colored: 0 0 transparent; --tw-blur: ; --tw-brightness: ; --tw-contrast: ; --tw-grayscale: ; --tw-hue-rotate: ; --tw-invert: ; --tw-saturate: ; --tw-sepia: ; --tw-drop-shadow: ; --tw-backdrop-blur: ; --tw-backdrop-brightness: ; --tw-backdrop-contrast: ; --tw-backdrop-grayscale: ; --tw-backdrop-hue-rotate: ; --tw-backdrop-invert: ; --tw-backdrop-opacity: ; --tw-backdrop-saturate: ; --tw-backdrop-sepia: ; font-weight: 600; color: var(--tw-prose-bold); font-family: Söhne, ui-sans-serif, system-ui, -apple-system, &amp;quot;Segoe UI&amp;quot;, Roboto, Ubuntu, Cantarell, &amp;quot;Noto Sans&amp;quot;, sans-serif, &amp;quot;Helvetica Neue&amp;quot;, Arial, &amp;quot;Apple Color Emoji&amp;quot;, &amp;quot;Segoe UI Emoji&amp;quot;, &amp;quot;Segoe UI Symbol&amp;quot;, &amp;quot;Noto Color Emoji&amp;quot;; font-size: 12px; font-style: normal; font-variant-ligatures: normal; font-variant-caps: normal; letter-spacing: normal; orphans: 2; text-align: left; text-indent: 0px; text-transform: none; widows: 2; word-spacing: 0px; -webkit-text-stroke-width: 0px; text-decoration-thickness: initial; text-decoration-style: initial; text-decoration-color: initial;&quot;&gt;Completed Maintenance Data&lt;/strong&gt;" style="text;whiteSpace=wrap;html=1;labelBackgroundColor=default;fontSize=12;" vertex="1" parent="1">
          <mxGeometry x="1175" y="900" width="250" height="20" as="geometry" />
        </mxCell>
        <mxCell id="XGFKqOZZNp15hK3o9Csi-56" value="" style="endArrow=classic;html=1;rounded=0;entryX=0.5;entryY=0;entryDx=0;entryDy=0;exitX=0.5;exitY=1;exitDx=0;exitDy=0;" edge="1" parent="1" source="XGFKqOZZNp15hK3o9Csi-4" target="XGFKqOZZNp15hK3o9Csi-30">
          <mxGeometry width="50" height="50" relative="1" as="geometry">
            <mxPoint x="500" y="970" as="sourcePoint" />
            <mxPoint x="550" y="920" as="targetPoint" />
          </mxGeometry>
        </mxCell>
        <mxCell id="XGFKqOZZNp15hK3o9Csi-57" style="edgeStyle=orthogonalEdgeStyle;rounded=0;orthogonalLoop=1;jettySize=auto;html=1;entryX=0;entryY=0.5;entryDx=0;entryDy=0;" edge="1" parent="1" source="XGFKqOZZNp15hK3o9Csi-30" target="XGFKqOZZNp15hK3o9Csi-23">
          <mxGeometry relative="1" as="geometry" />
        </mxCell>
        <mxCell id="XGFKqOZZNp15hK3o9Csi-58" value="&lt;span style=&quot;font-family: Söhne, ui-sans-serif, system-ui, -apple-system, &amp;quot;Segoe UI&amp;quot;, Roboto, Ubuntu, Cantarell, &amp;quot;Noto Sans&amp;quot;, sans-serif, &amp;quot;Helvetica Neue&amp;quot;, Arial, &amp;quot;Apple Color Emoji&amp;quot;, &amp;quot;Segoe UI Emoji&amp;quot;, &amp;quot;Segoe UI Symbol&amp;quot;, &amp;quot;Noto Color Emoji&amp;quot;; font-size: 11px; font-style: normal; font-variant-ligatures: normal; font-variant-caps: normal; font-weight: 400; letter-spacing: normal; orphans: 2; text-align: left; text-indent: 0px; text-transform: none; widows: 2; word-spacing: 0px; -webkit-text-stroke-width: 0px; text-decoration-thickness: initial; text-decoration-style: initial; text-decoration-color: initial; float: none; display: inline !important;&quot;&gt;Inputs maintenance&lt;/span&gt;" style="text;whiteSpace=wrap;html=1;labelBackgroundColor=default;fontColor=#000000;fontSize=11;" vertex="1" parent="1">
          <mxGeometry x="500" y="930" width="165" height="40" as="geometry" />
        </mxCell>
        <mxCell id="XGFKqOZZNp15hK3o9Csi-59" value="&lt;span style=&quot;font-family: Söhne, ui-sans-serif, system-ui, -apple-system, &amp;quot;Segoe UI&amp;quot;, Roboto, Ubuntu, Cantarell, &amp;quot;Noto Sans&amp;quot;, sans-serif, &amp;quot;Helvetica Neue&amp;quot;, Arial, &amp;quot;Apple Color Emoji&amp;quot;, &amp;quot;Segoe UI Emoji&amp;quot;, &amp;quot;Segoe UI Symbol&amp;quot;, &amp;quot;Noto Color Emoji&amp;quot;; font-size: 11px; font-style: normal; font-variant-ligatures: normal; font-variant-caps: normal; font-weight: 400; letter-spacing: normal; orphans: 2; text-align: left; text-indent: 0px; text-transform: none; widows: 2; word-spacing: 0px; -webkit-text-stroke-width: 0px; text-decoration-thickness: initial; text-decoration-style: initial; text-decoration-color: initial; float: none; display: inline !important;&quot;&gt;Reads and processes &lt;/span&gt;" style="text;whiteSpace=wrap;html=1;labelBackgroundColor=default;fontColor=default;fontSize=11;" vertex="1" parent="1">
          <mxGeometry x="650" y="1012.5" width="180" height="40" as="geometry" />
        </mxCell>
        <mxCell id="XGFKqOZZNp15hK3o9Csi-61" style="edgeStyle=orthogonalEdgeStyle;rounded=0;orthogonalLoop=1;jettySize=auto;html=1;entryX=0;entryY=0.75;entryDx=0;entryDy=0;" edge="1" parent="1" source="XGFKqOZZNp15hK3o9Csi-30" target="XGFKqOZZNp15hK3o9Csi-15">
          <mxGeometry relative="1" as="geometry" />
        </mxCell>
        <mxCell id="XGFKqOZZNp15hK3o9Csi-62" value="Updates the status" style="text;whiteSpace=wrap;html=1;" vertex="1" parent="1">
          <mxGeometry x="1005" y="1140" width="130" height="40" as="geometry" />
        </mxCell>
        <mxCell id="XGFKqOZZNp15hK3o9Csi-63" value="" style="endArrow=classic;html=1;rounded=0;entryX=0.5;entryY=1;entryDx=0;entryDy=0;exitX=0.5;exitY=0;exitDx=0;exitDy=0;" edge="1" parent="1" source="XGFKqOZZNp15hK3o9Csi-27" target="XGFKqOZZNp15hK3o9Csi-37">
          <mxGeometry width="50" height="50" relative="1" as="geometry">
            <mxPoint x="1040" y="750" as="sourcePoint" />
            <mxPoint x="1090" y="700" as="targetPoint" />
          </mxGeometry>
        </mxCell>
        <mxCell id="XGFKqOZZNp15hK3o9Csi-64" value="&lt;span style=&quot;font-family: Söhne, ui-sans-serif, system-ui, -apple-system, &amp;quot;Segoe UI&amp;quot;, Roboto, Ubuntu, Cantarell, &amp;quot;Noto Sans&amp;quot;, sans-serif, &amp;quot;Helvetica Neue&amp;quot;, Arial, &amp;quot;Apple Color Emoji&amp;quot;, &amp;quot;Segoe UI Emoji&amp;quot;, &amp;quot;Segoe UI Symbol&amp;quot;, &amp;quot;Noto Color Emoji&amp;quot;; font-size: 16px; font-style: normal; font-variant-ligatures: normal; font-variant-caps: normal; font-weight: 400; letter-spacing: normal; orphans: 2; text-align: left; text-indent: 0px; text-transform: none; widows: 2; word-spacing: 0px; -webkit-text-stroke-width: 0px; text-decoration-thickness: initial; text-decoration-style: initial; text-decoration-color: initial; float: none; display: inline !important;&quot;&gt;Writes and updates&lt;/span&gt;" style="text;whiteSpace=wrap;html=1;labelBackgroundColor=default;fontColor=default;" vertex="1" parent="1">
          <mxGeometry x="1080" y="680" width="170" height="40" as="geometry" />
        </mxCell>
        <mxCell id="XGFKqOZZNp15hK3o9Csi-65" value="" style="endArrow=classic;html=1;rounded=0;exitX=1;exitY=0.5;exitDx=0;exitDy=0;entryX=0.5;entryY=0;entryDx=0;entryDy=0;" edge="1" parent="1" source="XGFKqOZZNp15hK3o9Csi-37" target="XGFKqOZZNp15hK3o9Csi-19">
          <mxGeometry width="50" height="50" relative="1" as="geometry">
            <mxPoint x="1180" y="650" as="sourcePoint" />
            <mxPoint x="1361.5809697690217" y="740" as="targetPoint" />
            <Array as="points">
              <mxPoint x="1360" y="620" />
            </Array>
          </mxGeometry>
        </mxCell>
        <mxCell id="XGFKqOZZNp15hK3o9Csi-66" value="&lt;span style=&quot;font-family: Söhne, ui-sans-serif, system-ui, -apple-system, &amp;quot;Segoe UI&amp;quot;, Roboto, Ubuntu, Cantarell, &amp;quot;Noto Sans&amp;quot;, sans-serif, &amp;quot;Helvetica Neue&amp;quot;, Arial, &amp;quot;Apple Color Emoji&amp;quot;, &amp;quot;Segoe UI Emoji&amp;quot;, &amp;quot;Segoe UI Symbol&amp;quot;, &amp;quot;Noto Color Emoji&amp;quot;; font-size: 16px; font-style: normal; font-variant-ligatures: normal; font-variant-caps: normal; font-weight: 400; letter-spacing: normal; orphans: 2; text-align: left; text-indent: 0px; text-transform: none; widows: 2; word-spacing: 0px; -webkit-text-stroke-width: 0px; text-decoration-thickness: initial; text-decoration-style: initial; text-decoration-color: initial; float: none; display: inline !important;&quot;&gt;Reads the maintenance schedule&lt;/span&gt;" style="text;whiteSpace=wrap;html=1;labelBackgroundColor=default;fontColor=default;" vertex="1" parent="1">
          <mxGeometry x="1190" y="580" width="260" height="40" as="geometry" />
        </mxCell>
        <mxCell id="XGFKqOZZNp15hK3o9Csi-67" style="edgeStyle=orthogonalEdgeStyle;rounded=0;orthogonalLoop=1;jettySize=auto;html=1;entryX=0.5;entryY=0;entryDx=0;entryDy=0;" edge="1" parent="1" source="XGFKqOZZNp15hK3o9Csi-19" target="XGFKqOZZNp15hK3o9Csi-34">
          <mxGeometry relative="1" as="geometry" />
        </mxCell>
        <mxCell id="XGFKqOZZNp15hK3o9Csi-69" value="&lt;strong style=&quot;border: 0px solid rgb(217, 217, 227); box-sizing: border-box; --tw-border-spacing-x: 0; --tw-border-spacing-y: 0; --tw-translate-x: 0; --tw-translate-y: 0; --tw-rotate: 0; --tw-skew-x: 0; --tw-skew-y: 0; --tw-scale-x: 1; --tw-scale-y: 1; --tw-pan-x: ; --tw-pan-y: ; --tw-pinch-zoom: ; --tw-scroll-snap-strictness: proximity; --tw-gradient-from-position: ; --tw-gradient-via-position: ; --tw-gradient-to-position: ; --tw-ordinal: ; --tw-slashed-zero: ; --tw-numeric-figure: ; --tw-numeric-spacing: ; --tw-numeric-fraction: ; --tw-ring-inset: ; --tw-ring-offset-width: 0px; --tw-ring-offset-color: #fff; --tw-ring-color: rgba(69,89,164,.5); --tw-ring-offset-shadow: 0 0 transparent; --tw-ring-shadow: 0 0 transparent; --tw-shadow: 0 0 transparent; --tw-shadow-colored: 0 0 transparent; --tw-blur: ; --tw-brightness: ; --tw-contrast: ; --tw-grayscale: ; --tw-hue-rotate: ; --tw-invert: ; --tw-saturate: ; --tw-sepia: ; --tw-drop-shadow: ; --tw-backdrop-blur: ; --tw-backdrop-brightness: ; --tw-backdrop-contrast: ; --tw-backdrop-grayscale: ; --tw-backdrop-hue-rotate: ; --tw-backdrop-invert: ; --tw-backdrop-opacity: ; --tw-backdrop-saturate: ; --tw-backdrop-sepia: ; font-weight: 600; color: var(--tw-prose-bold); font-family: Söhne, ui-sans-serif, system-ui, -apple-system, &amp;quot;Segoe UI&amp;quot;, Roboto, Ubuntu, Cantarell, &amp;quot;Noto Sans&amp;quot;, sans-serif, &amp;quot;Helvetica Neue&amp;quot;, Arial, &amp;quot;Apple Color Emoji&amp;quot;, &amp;quot;Segoe UI Emoji&amp;quot;, &amp;quot;Segoe UI Symbol&amp;quot;, &amp;quot;Noto Color Emoji&amp;quot;; font-size: 16px; font-style: normal; font-variant-ligatures: normal; font-variant-caps: normal; letter-spacing: normal; orphans: 2; text-align: left; text-indent: 0px; text-transform: none; widows: 2; word-spacing: 0px; -webkit-text-stroke-width: 0px; text-decoration-thickness: initial; text-decoration-style: initial; text-decoration-color: initial;&quot;&gt;Perform Maintenance&lt;/strong&gt;" style="text;whiteSpace=wrap;html=1;labelBackgroundColor=default;" vertex="1" parent="1">
          <mxGeometry x="1580" y="830" width="190" height="40" as="geometry" />
        </mxCell>
        <mxCell id="XGFKqOZZNp15hK3o9Csi-72" value="" style="endArrow=classic;html=1;rounded=0;exitX=0.5;exitY=1;exitDx=0;exitDy=0;entryX=1.002;entryY=0.465;entryDx=0;entryDy=0;entryPerimeter=0;" edge="1" parent="1" source="XGFKqOZZNp15hK3o9Csi-34" target="XGFKqOZZNp15hK3o9Csi-15">
          <mxGeometry width="50" height="50" relative="1" as="geometry">
            <mxPoint x="1540" y="1040" as="sourcePoint" />
            <mxPoint x="1590" y="990" as="targetPoint" />
            <Array as="points">
              <mxPoint x="1570" y="1110" />
            </Array>
          </mxGeometry>
        </mxCell>
        <mxCell id="XGFKqOZZNp15hK3o9Csi-73" value="&lt;strong style=&quot;border: 0px solid rgb(217, 217, 227); box-sizing: border-box; --tw-border-spacing-x: 0; --tw-border-spacing-y: 0; --tw-translate-x: 0; --tw-translate-y: 0; --tw-rotate: 0; --tw-skew-x: 0; --tw-skew-y: 0; --tw-scale-x: 1; --tw-scale-y: 1; --tw-pan-x: ; --tw-pan-y: ; --tw-pinch-zoom: ; --tw-scroll-snap-strictness: proximity; --tw-gradient-from-position: ; --tw-gradient-via-position: ; --tw-gradient-to-position: ; --tw-ordinal: ; --tw-slashed-zero: ; --tw-numeric-figure: ; --tw-numeric-spacing: ; --tw-numeric-fraction: ; --tw-ring-inset: ; --tw-ring-offset-width: 0px; --tw-ring-offset-color: #fff; --tw-ring-color: rgba(69,89,164,.5); --tw-ring-offset-shadow: 0 0 transparent; --tw-ring-shadow: 0 0 transparent; --tw-shadow: 0 0 transparent; --tw-shadow-colored: 0 0 transparent; --tw-blur: ; --tw-brightness: ; --tw-contrast: ; --tw-grayscale: ; --tw-hue-rotate: ; --tw-invert: ; --tw-saturate: ; --tw-sepia: ; --tw-drop-shadow: ; --tw-backdrop-blur: ; --tw-backdrop-brightness: ; --tw-backdrop-contrast: ; --tw-backdrop-grayscale: ; --tw-backdrop-hue-rotate: ; --tw-backdrop-invert: ; --tw-backdrop-opacity: ; --tw-backdrop-saturate: ; --tw-backdrop-sepia: ; font-weight: 600; color: var(--tw-prose-bold); font-family: Söhne, ui-sans-serif, system-ui, -apple-system, &amp;quot;Segoe UI&amp;quot;, Roboto, Ubuntu, Cantarell, &amp;quot;Noto Sans&amp;quot;, sans-serif, &amp;quot;Helvetica Neue&amp;quot;, Arial, &amp;quot;Apple Color Emoji&amp;quot;, &amp;quot;Segoe UI Emoji&amp;quot;, &amp;quot;Segoe UI Symbol&amp;quot;, &amp;quot;Noto Color Emoji&amp;quot;; font-size: 16px; font-style: normal; font-variant-ligatures: normal; font-variant-caps: normal; letter-spacing: normal; orphans: 2; text-align: left; text-indent: 0px; text-transform: none; widows: 2; word-spacing: 0px; -webkit-text-stroke-width: 0px; text-decoration-thickness: initial; text-decoration-style: initial; text-decoration-color: initial;&quot;&gt;Update Request Status&lt;/strong&gt;" style="text;whiteSpace=wrap;html=1;labelBackgroundColor=default;" vertex="1" parent="1">
          <mxGeometry x="1435" y="1002.5" width="130" height="45" as="geometry" />
        </mxCell>
        <mxCell id="XGFKqOZZNp15hK3o9Csi-76" value="Facility Staff" style="rounded=0;whiteSpace=wrap;html=1;fillColor=#dae8fc;strokeColor=#6c8ebf;" vertex="1" parent="1">
          <mxGeometry x="1520" y="650" width="120" height="60" as="geometry" />
        </mxCell>
        <mxCell id="XGFKqOZZNp15hK3o9Csi-81" style="edgeStyle=orthogonalEdgeStyle;rounded=0;orthogonalLoop=1;jettySize=auto;html=1;exitX=0.75;exitY=0;exitDx=0;exitDy=0;entryX=0;entryY=0.5;entryDx=0;entryDy=0;" edge="1" parent="1" source="XGFKqOZZNp15hK3o9Csi-19" target="XGFKqOZZNp15hK3o9Csi-76">
          <mxGeometry relative="1" as="geometry" />
        </mxCell>
        <mxCell id="XGFKqOZZNp15hK3o9Csi-82" value="tasks based on the schedule" style="text;html=1;align=center;verticalAlign=middle;resizable=0;points=[];autosize=1;strokeColor=none;fillColor=none;fontSize=11;" vertex="1" parent="1">
          <mxGeometry x="1360" y="650" width="160" height="30" as="geometry" />
        </mxCell>
        <mxCell id="XGFKqOZZNp15hK3o9Csi-86" style="edgeStyle=orthogonalEdgeStyle;rounded=0;orthogonalLoop=1;jettySize=auto;html=1;entryX=0.417;entryY=0.917;entryDx=0;entryDy=0;entryPerimeter=0;exitX=0.5;exitY=1;exitDx=0;exitDy=0;" edge="1" parent="1" source="XGFKqOZZNp15hK3o9Csi-15" target="XGFKqOZZNp15hK3o9Csi-1">
          <mxGeometry relative="1" as="geometry">
            <mxPoint x="160" y="860" as="targetPoint" />
            <mxPoint x="1370" y="1200" as="sourcePoint" />
          </mxGeometry>
        </mxCell>
        <mxCell id="XGFKqOZZNp15hK3o9Csi-88" style="edgeStyle=orthogonalEdgeStyle;rounded=0;orthogonalLoop=1;jettySize=auto;html=1;entryX=0;entryY=0.5;entryDx=0;entryDy=0;" edge="1" parent="1" source="XGFKqOZZNp15hK3o9Csi-8" target="XGFKqOZZNp15hK3o9Csi-3">
          <mxGeometry relative="1" as="geometry">
            <Array as="points">
              <mxPoint x="495" y="510" />
            </Array>
          </mxGeometry>
        </mxCell>
        <mxCell id="XGFKqOZZNp15hK3o9Csi-90" style="edgeStyle=orthogonalEdgeStyle;rounded=0;orthogonalLoop=1;jettySize=auto;html=1;entryX=0.25;entryY=1;entryDx=0;entryDy=0;" edge="1" parent="1" source="XGFKqOZZNp15hK3o9Csi-25" target="XGFKqOZZNp15hK3o9Csi-3">
          <mxGeometry relative="1" as="geometry" />
        </mxCell>
        <mxCell id="XGFKqOZZNp15hK3o9Csi-91" value="" style="endArrow=classic;html=1;rounded=0;exitX=0.011;exitY=0.041;exitDx=0;exitDy=0;entryX=1;entryY=0.5;entryDx=0;entryDy=0;exitPerimeter=0;" edge="1" parent="1" source="XGFKqOZZNp15hK3o9Csi-27" target="XGFKqOZZNp15hK3o9Csi-3">
          <mxGeometry width="50" height="50" relative="1" as="geometry">
            <mxPoint x="880" y="690" as="sourcePoint" />
            <mxPoint x="930" y="640" as="targetPoint" />
            <Array as="points">
              <mxPoint x="950" y="750" />
              <mxPoint x="950" y="510" />
            </Array>
          </mxGeometry>
        </mxCell>
        <mxCell id="XGFKqOZZNp15hK3o9Csi-93" value="" style="endArrow=none;html=1;rounded=0;exitX=1;exitY=0.75;exitDx=0;exitDy=0;entryX=0.5;entryY=0;entryDx=0;entryDy=0;startArrow=open;startFill=0;endFill=0;" edge="1" parent="1" source="XGFKqOZZNp15hK3o9Csi-15" target="XGFKqOZZNp15hK3o9Csi-3">
          <mxGeometry width="50" height="50" relative="1" as="geometry">
            <mxPoint x="1540" y="1190" as="sourcePoint" />
            <mxPoint x="986.3636997767857" y="440" as="targetPoint" />
            <Array as="points">
              <mxPoint x="1770" y="1140" />
              <mxPoint x="1770" y="440" />
              <mxPoint x="840" y="440" />
            </Array>
          </mxGeometry>
        </mxCell>
        <mxCell id="XGFKqOZZNp15hK3o9Csi-94" value="" style="endArrow=classic;html=1;rounded=0;exitX=0.25;exitY=0;exitDx=0;exitDy=0;entryX=0.398;entryY=0;entryDx=0;entryDy=0;entryPerimeter=0;" edge="1" parent="1" source="XGFKqOZZNp15hK3o9Csi-3" target="XGFKqOZZNp15hK3o9Csi-1">
          <mxGeometry width="50" height="50" relative="1" as="geometry">
            <mxPoint x="630" y="440" as="sourcePoint" />
            <mxPoint x="390" y="400" as="targetPoint" />
            <Array as="points">
              <mxPoint x="810" y="400" />
              <mxPoint x="158" y="400" />
            </Array>
          </mxGeometry>
        </mxCell>
        <mxCell id="XGFKqOZZNp15hK3o9Csi-95" value="&lt;span style=&quot;font-family: Söhne, ui-sans-serif, system-ui, -apple-system, &amp;quot;Segoe UI&amp;quot;, Roboto, Ubuntu, Cantarell, &amp;quot;Noto Sans&amp;quot;, sans-serif, &amp;quot;Helvetica Neue&amp;quot;, Arial, &amp;quot;Apple Color Emoji&amp;quot;, &amp;quot;Segoe UI Emoji&amp;quot;, &amp;quot;Segoe UI Symbol&amp;quot;, &amp;quot;Noto Color Emoji&amp;quot;; font-size: 11px; font-style: normal; font-variant-ligatures: normal; font-variant-caps: normal; font-weight: 400; letter-spacing: normal; orphans: 2; text-align: left; text-indent: 0px; text-transform: none; widows: 2; word-spacing: 0px; -webkit-text-stroke-width: 0px; text-decoration-thickness: initial; text-decoration-style: initial; text-decoration-color: initial; float: none; display: inline !important;&quot;&gt; processes and validates maintenance&lt;/span&gt;" style="text;whiteSpace=wrap;html=1;labelBackgroundColor=default;fontColor=default;fontSize=11;" vertex="1" parent="1">
          <mxGeometry x="510" y="510" width="290" height="40" as="geometry" />
        </mxCell>
        <mxCell id="XGFKqOZZNp15hK3o9Csi-97" value="&lt;span style=&quot;font-family: Söhne, ui-sans-serif, system-ui, -apple-system, &amp;quot;Segoe UI&amp;quot;, Roboto, Ubuntu, Cantarell, &amp;quot;Noto Sans&amp;quot;, sans-serif, &amp;quot;Helvetica Neue&amp;quot;, Arial, &amp;quot;Apple Color Emoji&amp;quot;, &amp;quot;Segoe UI Emoji&amp;quot;, &amp;quot;Segoe UI Symbol&amp;quot;, &amp;quot;Noto Color Emoji&amp;quot;; font-size: 11px; font-style: normal; font-variant-ligatures: normal; font-variant-caps: normal; font-weight: 400; letter-spacing: normal; orphans: 2; text-align: left; text-indent: 0px; text-transform: none; widows: 2; word-spacing: 0px; -webkit-text-stroke-width: 0px; text-decoration-thickness: initial; text-decoration-style: initial; text-decoration-color: initial; float: none; display: inline !important;&quot;&gt;reviews and approves maintenance&lt;/span&gt;" style="text;whiteSpace=wrap;html=1;labelBackgroundColor=default;fontSize=11;fontColor=default;" vertex="1" parent="1">
          <mxGeometry x="630" y="600" width="270" height="40" as="geometry" />
        </mxCell>
        <mxCell id="XGFKqOZZNp15hK3o9Csi-98" value="&lt;span style=&quot;font-family: Söhne, ui-sans-serif, system-ui, -apple-system, &amp;quot;Segoe UI&amp;quot;, Roboto, Ubuntu, Cantarell, &amp;quot;Noto Sans&amp;quot;, sans-serif, &amp;quot;Helvetica Neue&amp;quot;, Arial, &amp;quot;Apple Color Emoji&amp;quot;, &amp;quot;Segoe UI Emoji&amp;quot;, &amp;quot;Segoe UI Symbol&amp;quot;, &amp;quot;Noto Color Emoji&amp;quot;; font-size: 16px; font-style: normal; font-variant-ligatures: normal; font-variant-caps: normal; font-weight: 400; letter-spacing: normal; orphans: 2; text-align: left; text-indent: 0px; text-transform: none; widows: 2; word-spacing: 0px; -webkit-text-stroke-width: 0px; text-decoration-thickness: initial; text-decoration-style: initial; text-decoration-color: initial; float: none; display: inline !important;&quot;&gt; schedules approved&lt;/span&gt;" style="text;whiteSpace=wrap;html=1;labelBackgroundColor=default;fontColor=default;" vertex="1" parent="1">
          <mxGeometry x="950" y="540" width="170" height="40" as="geometry" />
        </mxCell>
        <mxCell id="XGFKqOZZNp15hK3o9Csi-99" value="&lt;span style=&quot;font-family: Söhne, ui-sans-serif, system-ui, -apple-system, &amp;quot;Segoe UI&amp;quot;, Roboto, Ubuntu, Cantarell, &amp;quot;Noto Sans&amp;quot;, sans-serif, &amp;quot;Helvetica Neue&amp;quot;, Arial, &amp;quot;Apple Color Emoji&amp;quot;, &amp;quot;Segoe UI Emoji&amp;quot;, &amp;quot;Segoe UI Symbol&amp;quot;, &amp;quot;Noto Color Emoji&amp;quot;; font-size: 16px; font-style: normal; font-variant-ligatures: normal; font-variant-caps: normal; font-weight: 400; letter-spacing: normal; orphans: 2; text-align: left; text-indent: 0px; text-transform: none; widows: 2; word-spacing: 0px; -webkit-text-stroke-width: 0px; text-decoration-thickness: initial; text-decoration-style: initial; text-decoration-color: initial; float: none; display: inline !important;&quot;&gt; updates the status&lt;/span&gt;" style="text;whiteSpace=wrap;html=1;labelBackgroundColor=default;fontColor=default;" vertex="1" parent="1">
          <mxGeometry x="985" y="440" width="160" height="40" as="geometry" />
        </mxCell>
        <mxCell id="XGFKqOZZNp15hK3o9Csi-100" value="&lt;span style=&quot;font-family: Söhne, ui-sans-serif, system-ui, -apple-system, &amp;quot;Segoe UI&amp;quot;, Roboto, Ubuntu, Cantarell, &amp;quot;Noto Sans&amp;quot;, sans-serif, &amp;quot;Helvetica Neue&amp;quot;, Arial, &amp;quot;Apple Color Emoji&amp;quot;, &amp;quot;Segoe UI Emoji&amp;quot;, &amp;quot;Segoe UI Symbol&amp;quot;, &amp;quot;Noto Color Emoji&amp;quot;; font-size: 11px; font-style: normal; font-variant-ligatures: normal; font-variant-caps: normal; font-weight: 400; letter-spacing: normal; orphans: 2; text-align: left; text-indent: 0px; text-transform: none; widows: 2; word-spacing: 0px; -webkit-text-stroke-width: 0px; text-decoration-thickness: initial; text-decoration-style: initial; text-decoration-color: initial; float: none; display: inline !important;&quot;&gt;provides feedback and notifications&lt;/span&gt;" style="text;whiteSpace=wrap;html=1;labelBackgroundColor=default;fontColor=default;fontSize=11;" vertex="1" parent="1">
          <mxGeometry x="370" y="405" width="280" height="40" as="geometry" />
        </mxCell>
      </root>
    </mxGraphModel>
  </diagram>
</mxfile>
